<svg id="line" height="512" viewBox="0 0 64 64" width="512" xmlns="http://www.w3.org/2000/svg"><path d="m60.638 30h-36.638a3 3 0 0 0 -3 3v26a3 3 0 0 0 3 3h30a3 3 0 0 0 3-3v-20.063a1 1 0 0 1 .36-.769l4.79-3.992a2.365 2.365 0 0 0 -1.512-4.176zm-9.638 25h-24a1 1 0 0 1 0-2h24a1 1 0 0 1 0 2zm0-8h-24a1 1 0 0 1 0-2h24a1 1 0 0 1 0 2zm0-8h-24a1 1 0 0 1 0-2h24a1 1 0 0 1 0 2z" fill="#c4a2fc"/><g fill="#151a6a"><path d="m26 22a7.008 7.008 0 0 0 7-7v-6a7 7 0 0 0 -14 0v6a7.008 7.008 0 0 0 7 7zm-5-13a5 5 0 0 1 10 0v6a5 5 0 0 1 -10 0z"/><path d="m12 17a5.006 5.006 0 0 0 5-5v-4a5 5 0 0 0 -10 0v4a5.006 5.006 0 0 0 5 5zm-3-9a3 3 0 0 1 6 0v4a3 3 0 0 1 -6 0z"/><path d="m39.5 19a11.43 11.43 0 0 0 -9.806 5.542 12.859 12.859 0 0 0 -7.388 0 11.481 11.481 0 0 0 -21.306 5.958v1.5a3 3 0 0 0 3 3h9.17a13.056 13.056 0 0 0 -.17 2v3a3 3 0 0 0 3 3h20a3 3 0 0 0 3-3v-3a13.056 13.056 0 0 0 -.17-2h9.17a3 3 0 0 0 3-3v-1.5a11.513 11.513 0 0 0 -11.5-11.5zm-35.5 14a1 1 0 0 1 -1-1v-1.5a9.49 9.49 0 0 1 17.42-5.224 13.05 13.05 0 0 0 -6.784 7.724zm33 7a1 1 0 0 1 -1 1h-20a1 1 0 0 1 -1-1v-3a11 11 0 0 1 22 0zm12-8a1 1 0 0 1 -1 1h-9.636a13.05 13.05 0 0 0 -6.784-7.724 9.49 9.49 0 0 1 17.42 5.224z"/><path d="m40 17a5.006 5.006 0 0 0 5-5v-4a5 5 0 0 0 -10 0v4a5.006 5.006 0 0 0 5 5zm-3-9a3 3 0 0 1 6 0v4a3 3 0 0 1 -6 0z"/></g></svg>