<svg xmlns="http://www.w3.org/2000/svg" width="512" height="619" viewBox="0 0 512 619">
  <g id="Group_31" data-name="Group 31" transform="translate(-2336 -437)">
    <g id="notes" transform="translate(2336 437)" opacity="0.3">
      <g id="Group_28" data-name="Group 28">
        <g id="Group_27" data-name="Group 27">
          <path id="Path_27" data-name="Path 27" d="M352,128H160a10.667,10.667,0,0,0,0,21.334H352A10.667,10.667,0,0,0,352,128Z" fill="#fff"/>
        </g>
      </g>
      <g id="Group_30" data-name="Group 30">
        <g id="Group_29" data-name="Group 29">
          <path id="Path_28" data-name="Path 28" d="M456.064,85.333a55.32,55.32,0,0,0-29.4,8.512V32a32.039,32.039,0,0,0-32-32H32A32.039,32.039,0,0,0,0,32V480a32.039,32.039,0,0,0,32,32H394.667a32.039,32.039,0,0,0,32-32V249.728l39.467-39.467c.021-.021.043-.021.064-.043s.021-.043.043-.064l29.376-29.376a55.905,55.905,0,0,0-39.553-95.445ZM405.333,480a10.685,10.685,0,0,1-10.667,10.667H32A10.685,10.685,0,0,1,21.333,480V426.667h23.3a32,32,0,1,0,0-21.334h-23.3V320h23.3a32,32,0,1,0,0-21.334h-23.3V213.333h23.3a32,32,0,1,0,0-21.334h-23.3V106.666h23.3a32,32,0,1,0,0-21.333h-23.3V32A10.685,10.685,0,0,1,32,21.333H394.667A10.685,10.685,0,0,1,405.334,32v80.917l-18.219,18.219-82.2,82.2H160a10.667,10.667,0,0,0,0,21.334H283.584l-64,64H160A10.667,10.667,0,1,0,160,320h50.325l-16,64H160a10.667,10.667,0,0,0,0,21.334h42.667a9.781,9.781,0,0,0,2.581-.341l85.333-21.333c.235-.064.4-.277.64-.363a10.688,10.688,0,0,0,3.755-2.112c.171-.149.4-.149.555-.32l109.8-109.8V480ZM64,416a10.667,10.667,0,1,1,10.667,10.667A10.685,10.685,0,0,1,64,416Zm0-106.667A10.667,10.667,0,1,1,74.667,320,10.685,10.685,0,0,1,64,309.333Zm0-106.666a10.667,10.667,0,1,1,10.667,10.667A10.685,10.685,0,0,1,64,202.667ZM64,96a10.667,10.667,0,1,1,10.667,10.667A10.685,10.685,0,0,1,64,96ZM231.915,321.643A67.44,67.44,0,0,1,275.691,365.4l-58.368,14.613Zm61.76,30.912a88.315,88.315,0,0,0-48.917-48.9l72.128-72.128,77.781-77.76,48.9,48.9ZM480.533,165.7l-21.888,21.888-48.9-48.917,13.8-13.8,8.107-8.107a34.209,34.209,0,0,1,24.469-10.133,34.59,34.59,0,0,1,24.4,59.072Z" fill="#fff"/>
        </g>
      </g>
    </g>
    <text id="No_Notes" data-name="No Notes" transform="translate(2566 1035)" fill="#fff" font-size="60" font-family="Poppins-Medium, Poppins" font-weight="500" opacity="0.5"><tspan x="-135.03" y="0">No Notes</tspan></text>
  </g>
</svg>
